<svg xmlns="http://www.w3.org/2000/svg" xmlns:xlink="http://www.w3.org/1999/xlink" width="1920" height="1741" viewBox="0 0 1920 1741">
  <defs>
    <linearGradient id="linear-gradient" x1="0.008" y1="0.013" x2="0.907" y2="0.881" gradientUnits="objectBoundingBox">
      <stop offset="0" stop-color="#6151f9"/>
      <stop offset="1" stop-color="#f75f9e"/>
    </linearGradient>
  </defs>
  <path id="Rectangle_164" data-name="Rectangle 164" d="M0,0H1920a0,0,0,0,1,0,0V1345a396,396,0,0,1-396,396H0a0,0,0,0,1,0,0V0A0,0,0,0,1,0,0Z" fill="url(#linear-gradient)"/>
  <g id="Group_1998" data-name="Group 1998" transform="translate(-1048 -429)" opacity="0.3">
    <circle id="Ellipse_63" data-name="Ellipse 63" cx="2" cy="2" r="2" transform="translate(1738 2096)" fill="#fff"/>
    <circle id="Ellipse_63-2" data-name="Ellipse 63" cx="2" cy="2" r="2" transform="translate(1752 2096)" fill="#fff"/>
    <circle id="Ellipse_63-3" data-name="Ellipse 63" cx="2" cy="2" r="2" transform="translate(1766 2096)" fill="#fff"/>
    <circle id="Ellipse_63-4" data-name="Ellipse 63" cx="2" cy="2" r="2" transform="translate(1780 2096)" fill="#fff"/>
    <circle id="Ellipse_63-5" data-name="Ellipse 63" cx="2" cy="2" r="2" transform="translate(1794 2096)" fill="#fff"/>
    <circle id="Ellipse_63-6" data-name="Ellipse 63" cx="2" cy="2" r="2" transform="translate(1808 2096)" fill="#fff"/>
    <circle id="Ellipse_63-7" data-name="Ellipse 63" cx="2" cy="2" r="2" transform="translate(1822 2096)" fill="#fff"/>
    <circle id="Ellipse_63-8" data-name="Ellipse 63" cx="2" cy="2" r="2" transform="translate(1738 2110)" fill="#fff"/>
    <circle id="Ellipse_63-9" data-name="Ellipse 63" cx="2" cy="2" r="2" transform="translate(1752 2110)" fill="#fff"/>
    <circle id="Ellipse_63-10" data-name="Ellipse 63" cx="2" cy="2" r="2" transform="translate(1766 2110)" fill="#fff"/>
    <circle id="Ellipse_63-11" data-name="Ellipse 63" cx="2" cy="2" r="2" transform="translate(1780 2110)" fill="#fff"/>
    <circle id="Ellipse_63-12" data-name="Ellipse 63" cx="2" cy="2" r="2" transform="translate(1794 2110)" fill="#fff"/>
    <circle id="Ellipse_63-13" data-name="Ellipse 63" cx="2" cy="2" r="2" transform="translate(1808 2110)" fill="#fff"/>
    <circle id="Ellipse_63-14" data-name="Ellipse 63" cx="2" cy="2" r="2" transform="translate(1822 2110)" fill="#fff"/>
    <circle id="Ellipse_63-15" data-name="Ellipse 63" cx="2" cy="2" r="2" transform="translate(1738 2124)" fill="#fff"/>
    <circle id="Ellipse_63-16" data-name="Ellipse 63" cx="2" cy="2" r="2" transform="translate(1752 2124)" fill="#fff"/>
    <circle id="Ellipse_63-17" data-name="Ellipse 63" cx="2" cy="2" r="2" transform="translate(1766 2124)" fill="#fff"/>
    <circle id="Ellipse_63-18" data-name="Ellipse 63" cx="2" cy="2" r="2" transform="translate(1780 2124)" fill="#fff"/>
    <circle id="Ellipse_63-19" data-name="Ellipse 63" cx="2" cy="2" r="2" transform="translate(1794 2124)" fill="#fff"/>
    <circle id="Ellipse_63-20" data-name="Ellipse 63" cx="2" cy="2" r="2" transform="translate(1808 2124)" fill="#fff"/>
    <circle id="Ellipse_63-21" data-name="Ellipse 63" cx="2" cy="2" r="2" transform="translate(1822 2124)" fill="#fff"/>
    <circle id="Ellipse_63-22" data-name="Ellipse 63" cx="2" cy="2" r="2" transform="translate(1738 2138)" fill="#fff"/>
    <circle id="Ellipse_63-23" data-name="Ellipse 63" cx="2" cy="2" r="2" transform="translate(1752 2138)" fill="#fff"/>
    <circle id="Ellipse_63-24" data-name="Ellipse 63" cx="2" cy="2" r="2" transform="translate(1766 2138)" fill="#fff"/>
    <circle id="Ellipse_63-25" data-name="Ellipse 63" cx="2" cy="2" r="2" transform="translate(1780 2138)" fill="#fff"/>
    <circle id="Ellipse_63-26" data-name="Ellipse 63" cx="2" cy="2" r="2" transform="translate(1794 2138)" fill="#fff"/>
    <circle id="Ellipse_63-27" data-name="Ellipse 63" cx="2" cy="2" r="2" transform="translate(1808 2138)" fill="#fff"/>
    <circle id="Ellipse_63-28" data-name="Ellipse 63" cx="2" cy="2" r="2" transform="translate(1822 2138)" fill="#fff"/>
    <circle id="Ellipse_63-29" data-name="Ellipse 63" cx="2" cy="2" r="2" transform="translate(1738 2152)" fill="#fff"/>
    <circle id="Ellipse_63-30" data-name="Ellipse 63" cx="2" cy="2" r="2" transform="translate(1752 2152)" fill="#fff"/>
    <circle id="Ellipse_63-31" data-name="Ellipse 63" cx="2" cy="2" r="2" transform="translate(1766 2152)" fill="#fff"/>
    <circle id="Ellipse_63-32" data-name="Ellipse 63" cx="2" cy="2" r="2" transform="translate(1780 2152)" fill="#fff"/>
    <circle id="Ellipse_63-33" data-name="Ellipse 63" cx="2" cy="2" r="2" transform="translate(1794 2152)" fill="#fff"/>
    <circle id="Ellipse_63-34" data-name="Ellipse 63" cx="2" cy="2" r="2" transform="translate(1808 2152)" fill="#fff"/>
    <circle id="Ellipse_63-35" data-name="Ellipse 63" cx="2" cy="2" r="2" transform="translate(1822 2152)" fill="#fff"/>
    <circle id="Ellipse_63-36" data-name="Ellipse 63" cx="2" cy="2" r="2" transform="translate(1738 2166)" fill="#fff"/>
    <circle id="Ellipse_63-37" data-name="Ellipse 63" cx="2" cy="2" r="2" transform="translate(1752 2166)" fill="#fff"/>
    <circle id="Ellipse_63-38" data-name="Ellipse 63" cx="2" cy="2" r="2" transform="translate(1766 2166)" fill="#fff"/>
    <circle id="Ellipse_63-39" data-name="Ellipse 63" cx="2" cy="2" r="2" transform="translate(1780 2166)" fill="#fff"/>
    <circle id="Ellipse_63-40" data-name="Ellipse 63" cx="2" cy="2" r="2" transform="translate(1794 2166)" fill="#fff"/>
    <circle id="Ellipse_63-41" data-name="Ellipse 63" cx="2" cy="2" r="2" transform="translate(1808 2166)" fill="#fff"/>
    <circle id="Ellipse_63-42" data-name="Ellipse 63" cx="2" cy="2" r="2" transform="translate(1822 2166)" fill="#fff"/>
  </g>
</svg>
